<?xml version="1.0" encoding="utf-8"?>
<!-- Generator: Adobe Illustrator 27.7.0, SVG Export Plug-In . SVG Version: 6.00 Build 0)  -->
<svg version="1.1" id="Layer_1" xmlns="http://www.w3.org/2000/svg" xmlns:xlink="http://www.w3.org/1999/xlink" x="0px" y="0px" viewBox="0 0 2160 480" style="enable-background:new 0 0 2160 480;" xml:space="preserve">
  <style type="text/css">
	.st0{fill:#E6F1FE;}
	.st1{fill:url(#SVGID_1_);}
	.st2{fill:url(#SVGID_00000035508983561996001360000005491327851065560973_);}
	.st3{fill:#99C6F9;}
	.st4{fill:#FFB100;}
	.st5{fill:#FCF8F4;}
	.st6{fill:none;}
	.st7{fill:#EFB7A5;}
	.st8{fill:url(#SVGID_00000165917926428856211250000003671904945303308434_);}
	.st9{fill:url(#SVGID_00000171710920041206710040000014069921068388784796_);}
	.st10{fill:#CF9F90;}
	.st11{fill:#FFFFFF;}
	.st12{fill:#0070F1;}
	.st13{fill:#23276C;}
	.st14{fill:#2041CA;}
	.st15{fill:#E9CCAF;}
	.st16{fill:#E4CDBD;}
	.st17{fill:#1A2154;}
	.st18{fill:#CC1754;}
	.st19{fill:#76B8F4;}
	.st20{fill:#ED1A60;}
</style>
  <rect x="0.7" y="0" class="st0" width="2159.3" height="478" />
  <linearGradient id="SVGID_1_" gradientUnits="userSpaceOnUse" x1="0" y1="564.7894" x2="1503.3" y2="564.7894" gradientTransform="matrix(1 0 0 1 0 -227.2756)">
    <stop offset="1" style="stop-color:#FFFFFF;stop-opacity:0.46" />
    <stop offset="1" style="stop-color:#FFFFFF" />
  </linearGradient>
  <path class="st1" d="M297.1,237.2c104.5,13.3,140.2-18.2,267.6-2.1c109.1,13.7,181.3,70.5,309.6,84.5c93.2,10.2,187.1-8,278.4,6.9
	c273.8,44.5,223.9,124.4,350.6,149.1h-402H0V207.2C155.6,181.2,224.7,228,297.1,237.2z" />
  <linearGradient id="SVGID_00000008850927688394298950000015532972046025727641_" gradientUnits="userSpaceOnUse" x1="0" y1="580.3779" x2="2143.3" y2="580.3779" gradientTransform="matrix(1 0 0 1 0 -227.2756)">
    <stop offset="1" style="stop-color:#FFFFFF;stop-opacity:0.46" />
    <stop offset="1" style="stop-color:#FFFFFF" />
  </linearGradient>
  <path style="fill:url(#SVGID_00000008850927688394298950000015532972046025727641_);" d="M2143.3,453v27H0V226.3
	c0,0,196.3-3.7,348.1,35c152.6,38.8,101.8,46.1,245.5,67.2c133.4,19.6,232-31.6,387.2-9.9c204,28.6,164.2,65.6,359.6,83.4
	c184.9,16.9,180.5-10.3,451.6,4.5C1841.8,409.2,1997.9,432.6,2143.3,453z" />
  <path class="st3" d="M1818.7,451.8c-59.2-12.7-68.3-35.8-139.3-46.5c-79.6-12-101.4,17.8-151.5,4.2c-68.1-18.5-114.8,30.2-213.1,9.8
	c-72.3-14.9-139.1,42.9-228.8,60.7h100.7H2160v-78.4C2022.6,349.5,1877.3,464.4,1818.7,451.8z" />
  <g>
    <path class="st4" d="M1597.3,126.7L1597.3,126.7c0-0.1,0-0.3,0-0.4c1.6-18.7-7.4-35.9-22-45.7 M1575.3,80.5
		c-6.8-4.5-14.7-7.5-23.4-8.3c-5.6-0.5-11-0.1-16.1,1.1c-20.4,4.9-36.3,22.2-38.3,44.2c-0.3,2.9-0.3,5.8,0,8.6c0,0.1,0,0.3,0,0.4
		l0,0l0.2-0.4c1.1-1.8,6.3-8.9,22.3-7.6c1.5,0.1,3.2-0.1,5-0.5c0.1,0,0.3-0.1,0.4-0.1c6.7-1.7,14.5-6.7,20.7-10.6
		c8-5,9.1,2.9,9.5,6.6c0.4,3.6,5.6,4,9.9,2c3.5-1.7,4.6,1.8,4.9,3c0.1,0.3,0.1,0.5,0.1,0.5l0,0c0,0,0.1,0,0.3,0c0.1,0,0.1,0,0.2,0
		c1.5-0.2,6.3-0.7,7.6,2.1c1.6,3.3,7.3,2,11.9,1.3c3.7-0.6,5.9,2.4,6.5,3.6l0.2,0.4" />
    <path class="st5" d="M1536.8,138.8h-99.6c0.1-6.5,5.2-11.7,11.6-11.7c0.4,0,0.8,0,1.2,0.1c0-0.5-0.1-0.9-0.1-1.4
		c0-9.2,7.3-16.7,16.4-16.7c2.3,0,4.6,0.5,6.6,1.4c0.5-6.1,5.5-10.9,11.5-10.9c6.1,0,11.1,4.8,11.5,10.9c1.8-0.6,3.6-0.9,5.5-0.9
		c10.2,0,18.5,8.5,18.5,19c0,0.3,0,0.7,0,1c1.6-0.8,3.4-1.3,5.3-1.3C1531.2,128.2,1536.1,132.8,1536.8,138.8z" />
  </g>
  <rect x="1123.9" y="89.3" class="st6" width="486.6" height="392.8" />
  <path class="st7" d="M1382.5,208.5c-0.9,3.2-2.3,6.3-3.9,9.2c-2,3.7-10.9,7.4-12.4,7.2c-5.2-0.4-14.1-11.6-16.9-15.2
	c-2.7-3.6-2.6-10.4-2.6-10.4l-0.1-17.2c0,0,7.9-7.9,13.2-8.5c5.3-0.6,20.7-3.9,20.7-3.9c0.4-0.1,2.3,3.7,2.5,4.2
	c0.8,1.6,4,3.8,4.8,5.3c0.8,1.6-0.1,6.6-0.7,9.9c-0.2,1.1-0.4,2.2-0.6,3.2c-0.1,0.7-0.3,1.4-0.4,2
	C1385.1,198.8,1384.1,202.9,1382.5,208.5L1382.5,208.5z" />
  <path class="st7" d="M1374.3,243.8c0,0-22.7,19.7-23.3,19.4c-0.6-0.3-20.6-32.7-20.6-32.7s9.6-3.5,10.4-5s6-23,6-23
	s10.5,6.3,11.1,6.4c0.6,0.1,10.6,10.6,10.6,10.6s-0.2,0.9-0.5,2.2c-0.2,0.8-0.4,1.9-0.7,3c-0.4,1.8-0.9,3.8-1.3,5.5
	c-0.2,0.7-0.3,1.4-0.5,2.1c-0.3,1.3-0.4,2.2-0.4,2.5C1365.2,235.7,1374.3,243.8,1374.3,243.8L1374.3,243.8z" />
  <path d="M1363.9,194.7c-0.1-1.6-1.9-1.7-2.4-0.2c-0.3,0.8-0.7,2.4,0.1,3.1c0.6,0.6,1.4,0.2,1.8-0.4
	C1363.7,196.7,1364,195.6,1363.9,194.7z" />
  <path d="M1380.3,197.9c-0.1-1.4-1.8-1.5-2.2-0.2c-0.3,0.8-0.6,2.2,0.1,2.8c0.6,0.5,1.3,0.2,1.6-0.4
	C1380,199.8,1380.3,198.7,1380.3,197.9L1380.3,197.9z" />
  <linearGradient id="SVGID_00000041267658578019519170000002630510265519398573_" gradientUnits="userSpaceOnUse" x1="1355.457" y1="187.4535" x2="1365.0221" y2="187.4535">
    <stop offset="1" style="stop-color:#FFFFFF;stop-opacity:0.46" />
    <stop offset="1" style="stop-color:#FFFFFF" />
  </linearGradient>
  <path style="fill:url(#SVGID_00000041267658578019519170000002630510265519398573_);" d="M1355.7,186.9c-1.2,1.6,2.4,1.5,3.1,1.5
	c1.2,0.1,2.4,0.3,3.6,0.5c0.5,0.1,2.5,0.9,2.6-0.1C1365.5,185.3,1357.4,184.7,1355.7,186.9L1355.7,186.9z" />
  <linearGradient id="SVGID_00000110455977076124413380000017510502842794984326_" gradientUnits="userSpaceOnUse" x1="1377.672" y1="192.33" x2="1386.3999" y2="192.33">
    <stop offset="1" style="stop-color:#FFFFFF;stop-opacity:0.46" />
    <stop offset="1" style="stop-color:#FFFFFF" />
  </linearGradient>
  <path style="fill:url(#SVGID_00000110455977076124413380000017510502842794984326_);" d="M1386,194.5c-0.9-0.1-2-0.6-2.3-0.7
	c-1.2-0.4-2.4-0.7-3.6-0.9c-0.5-0.1-2.7-0.2-2.4-1.1c0.8-2.9,6.6-1.5,8.7,0.7C1386.3,193.1,1386.2,193.8,1386,194.5L1386,194.5z" />
  <path class="st10" d="M1372.5,202.7c0.1-1.8-0.2-3.7-0.3-5.5c0-0.9-1.3-0.7-1.3,0.2c0,1.4,0.2,2.7,0.2,4.1c0.1,2.2-0.5,3.4-1.9,5
	c-0.6,0.7,0.5,1.5,1,0.8C1371.5,205.9,1372.4,204.6,1372.5,202.7L1372.5,202.7z" />
  <path class="st10" d="M1365.8,230.9c-1.5-0.4-3.4-1-5.5-1.8c-4.5-1.6-8.5-6.1-8-8.6c0.3-1.3,2-1,2.6-0.7s6.7,4.1,8.7,4.6
	s3.6,0.3,3.6,0.3c-0.4,1.5-0.7,3.1-1.1,4.5C1366,229.9,1365.9,230.4,1365.8,230.9z" />
  <path class="st7" d="M1350.5,200.8c-0.1-0.1-0.1-0.1-0.2-0.2c-0.1-0.5-0.3-1.1-0.5-1.6c0.1-0.2,0.2-0.4,0.2-0.6c-0.1-1-0.3-2-0.2-3
	c0-0.4,0.1-0.8,0.3-1.1c0-0.1,0.1-0.3,0.1-0.4c0.1-0.1,0.1-0.2,0.1-0.2c0.9-0.1,1.2-1.4,0.5-1.8c0.1-0.1,0.1-0.1,0.1-0.1
	c0.7,1,2.4,0,1.7-1c-0.1-0.1-0.1-0.1-0.2-0.2c0-0.2-0.1-0.5-0.3-0.7c-0.9-1-1.9-1-2.7-0.5c-1.1,0.4-2,1.4-2.3,2.6
	c-0.1,0.5-0.2,1-0.3,1.5c-0.4,2.6,0.1,6,1.6,8.1c0.1,0.1,0.1,0.2,0.2,0.3c0,0,0,0.1,0.1,0.1C1349.6,202.9,1351.3,201.8,1350.5,200.8
	L1350.5,200.8z" />
  <path class="st11" d="M1372.5,211.1c-0.1-0.2-0.3-0.3-0.7-0.4c-2.5-0.5-4.9-1.3-7.3-1.9c-0.9-0.2-2.4-0.2-1.8,1.2
	c0.9,2.3,2.8,3.8,5.7,4C1369.7,214.1,1373.3,212.4,1372.5,211.1L1372.5,211.1z" />
  <path class="st5" d="M1395.4,176.7c0.4-2.2,1-4.3-0.1-6.4c-0.7-1.3-1.3-2.6-2.2-3.7c-1.2-1.5-2.9-1.9-4.5-2.8
	c-1.3-0.7-2.8-1.3-4.2-1.7c-2.9-1.1-4.3-4.2-7.2-5.4c-2.2-1-4.6-1.7-7-1.5c-3.4,0.3-6.5,2.3-9.7,3.4c-1.6,0.5-3.1,0.3-4.7,0.5
	c-2.2,0.3-3.7,1.5-4.8,3.3c-0.9,1.5-1.7,2.4-3.2,3.3c-0.8,0.5-1.5,1-2.1,1.7c-1.1,1.5-1.3,4.2-0.8,6.1c-0.9,2.1-1.9,4.1-2.1,6.4
	c-0.2,1.5,0.1,3,0.2,4.5c0.1,2.1-0.6,3.9-0.9,5.9c-0.3,2.8,0.5,5.8,0.8,8.6c0.2,1.8,3.3,4.8,3.5,4.5c0.4-0.7,1-1.5,1.3-2.3
	c1.2-3.4,2.3-6.8,3.3-10.2c1.1-3.6,2.1-7.5,2.7-11.3c1.2-0.6,2.2-1.8,3.3-2.4c2.5-1.4,6.1-2.9,9-3.2c2.7-0.2,6.4,0,8.8,1.4
	c1.7,1,3.4,2.3,5.1,3.4c2.2,1.4,1.3,3.6,2.5,5.7c0.9,1.7,2.2,3.8,3.5,5.3c0.9,0.9,2.1,1.6,3.4,1.5c1.5-0.1,2.3-1.1,3.4-1.9
	c0.1-0.1,0.3-0.2,0.4-0.3c0.2-0.2,0.5-0.4,0.7-0.6C1397.5,185.2,1394.8,180.8,1395.4,176.7L1395.4,176.7z" />
  <path class="st7" d="M1353.4,187.5c-0.2-0.9-1.1-1.6-2.2-1.7c-1.6-0.2-3.2,1-4,2.3c-1.6,2.8-0.8,9,2.3,10.5c0.4,0.2,1-0.1,0.9-0.6
	c0-0.4-0.2-0.8-0.3-1.1c0.4-0.3,0.6-0.7,0.3-1.2c-0.1-0.1-0.1-0.3-0.2-0.5c0.1-0.1,0.1-0.1,0.2-0.2c0.5-0.7,1-1.7,0.9-2.6
	c0.3-0.1,0.6-0.2,0.7-0.6c0.3-0.9,0.6-1.8,0.7-2.7c0.1-0.3,0.2-0.5,0.4-0.7c0.1,0,0.2-0.1,0.3-0.2l0,0c0,0,0,0,0.1,0
	C1353.8,188.2,1353.6,187.7,1353.4,187.5L1353.4,187.5z" />
  <path class="st12" d="M1460.1,293.3c0,0,1.2-5.8,5.7-8.4s8.7-4.2,9.8-1.9c1.1,2.4-3.4,7.8-3.4,7.8s-3,3.7-4.3,3.8
	C1466.6,294.7,1460.1,293.3,1460.1,293.3L1460.1,293.3z" />
  <path class="st7" d="M1395.5,269.2c0,0,15.7,21.6,18.3,23.2c2.7,1.6,25.5,1.5,25.5,1.5l2.6,23.2c0,0-34.9,4-41.2,2.6
	c-6.4-1.4-24.3-26.8-24.3-26.8L1395.5,269.2L1395.5,269.2z" />
  <path class="st12" d="M1432.2,319.3c-2.3-2.1-0.1-27.5,1.1-28c1.3-0.5,24.1,2.7,26.7,2s18.7-6.6,24.4-5.7c5.8,0.8,12.1,6.9,10,14
	s-12.1,8.9-19.3,10.5c-3.3,0.7-8.2,0.3-9.4,0.8C1464.7,313.2,1434.5,321.4,1432.2,319.3L1432.2,319.3z" />
  <path class="st4" d="M1286.3,409.3c0,0-29-1-30.7,0.1c-1.6,1.1-3.6,4-4.6,9c-1.5,7.4-2.5,14.9-3,22.4c-0.4,5.1-1.6,10.2-1,15.3
	c1,9.6,14.5,6.6,17.8,0.4c3.6-6.7,4.7-14.9,8.6-21.5c0.2-0.4,12-1.5,12-1.5L1286.3,409.3L1286.3,409.3z" />
  <path class="st13" d="M1435.3,398.9c0,0,5.1,11.5-0.7,22.3c-6.8,12.6-39.9,9.5-39.9,9.5s3.8-22.6,3.8-23.2
	C1398.5,406.9,1435.3,398.9,1435.3,398.9L1435.3,398.9z" />
  <path class="st14" d="M1274.6,369.5c0,0-4.6,18.2,2.8,26.8c7.4,8.6,20.5,11.8,20.5,11.8s-14.1-0.8-14.9,1s-0.5,25.6,2.5,26
	c3.1,0.4,34.2,2.2,45.4,3.2c11.2,1,59.9,2.6,67.9-7.8s4.8-21.6,4.8-21.6s-71.1-46.8-73.5-47.8
	C1327.8,360.1,1274.6,369.5,1274.6,369.5L1274.6,369.5z" />
  <path class="st15" d="M1403.7,277.8c-0.2,1.8-23.8,21.4-25.6,22c-0.6,0.2-3.5-2.8-6.9-6.9c-4.1-4.7-5.8-14.3-8.8-18.1
	c-1.8-2.2-2.9-3.7-2.9-3.7l2.9-16.3l3.8-21.7h0.1c0,0,0.1,0,0.1,0.1c0.4,0.1,1.4,0.5,2.7,1c1.6,0.6,3.6,1.6,5.6,2.8
	c2.4,1.3,4.7,3,6.5,4.9c4.8,5.4,16.2,26,18.4,29.4C1401.9,274.8,1403.9,276,1403.7,277.8L1403.7,277.8z" />
  <path class="st16" d="M1375.3,246.3c-0.9,8.3-8,20.8-12.9,28.6c-2.7,4.2-4.7,7-4.7,7l-19.3,67.4l-27.5-1.5l-28.8-1.5
	c0,0,6.8-43.8,8.2-57.8c1.4-14,6.5-34.6,11.4-44.8c4.4-9.2,16.6-18.9,31.1-18.6c1.7,0,3.5,0.2,5.3,0.6c0.9,0.2,2.1-0.1,2.7,0.6
	c20.1,22,23.3,8.2,24.5,6.7c0,0,0.8,0.2,0.9,0.2c0.3,0,2,1,2.9,1.6c2.4,1.6,4.3,3.6,5.5,6.5c0.2,0.4,0.3,0.7,0.4,1.1
	C1375.4,243.6,1375.4,244.9,1375.3,246.3L1375.3,246.3z" />
  <path class="st15" d="M1282.2,346.4c0,0-14.5,22.1-14.3,25.1s7.2,4.8,18.6,5.6c11.4,0.8,14.8-3,24-3.6s6,0.4,16.8-1s17.8-5,18.2-5.6
	c0.4-0.6-6.9-17.5-6.9-17.5s-24.3-15.1-26.9-15.1C1309,334.3,1282.1,346.4,1282.2,346.4L1282.2,346.4z" />
  <path class="st17" d="M1375.3,284.6c-0.2,1.2-0.5,2.9-1,5c-4,17.6-17.4,62.7-17.4,62.7h-45.7c0,0-0.2-2.3-0.3-4.3
	c0-1.2,0-2.4,0.3-2.9c0.6-1.4,25-88.5,25-88.5s0.4-10.3-0.5-15.7c-1.8-11.1-2.7-15.3-2.8-15.7c1.7,0,3.5,0.2,5.3,0.6
	c0.5,1.3,1.2,3.7,1.9,6.9c2,8.9,2.6,20.3,2.6,20.3s11.7,1.4,19.7,2c4.1,0.3,7.1,0.4,7.2,0.1c0.2-0.8-0.3-15.3-0.5-20.2
	c0-0.2,0-0.3,0-0.5c1.6,0.6,3.6,1.6,5.6,2.8c0.1,1.2,0.2,3,0.3,5.3c0.1,1.2,0.1,2.5,0.2,3.9C1375.8,258.4,1377.6,267.6,1375.3,284.6
	L1375.3,284.6z" />
  <path class="st17" d="M1314.6,342.9c0,0-8.6,2.3-17,2.1c-9.2-0.2-14.9-2.1-14.9-2.1l-1.5,4.9c0,0,6.8,2.9,15.4,3s16.9-1.5,16.9-1.5
	L1314.6,342.9L1314.6,342.9z" />
  <path class="st17" d="M1310.9,349.8c0,0-1.9,4.9,1.7,11.9s59.8,39.8,63.9,43.2c4.1,3.4,10.5,14.8,17.5,13.2c7-1.6,14-7.8,23.2-10
	s22-5.8,22.6-7.4s-7.2-18-29.4-26.2c-22.2-8.2-42.4-17.1-45.2-18.8c-2.8-1.7-7.8-4.9-7.8-4.9s-18-2-20.2-2
	S1310.9,349.8,1310.9,349.8L1310.9,349.8z" />
  <path class="st14" d="M1132.2,367.7c-1.8,4.6,13,46.6,20.8,54.4c4.4,4.4,75.9,3.9,83.7-1.7c5.4-3.9,21.4-49.2,18.2-54.2
	c-3.2-5.1-20.8-10.3-65.5-10.3C1157.5,355.7,1134,363.1,1132.2,367.7L1132.2,367.7z" />
  <path class="st18" d="M1499.9,378.3c-0.8-2.3-3.1-2.1-4.9-1.3c-0.3,0.1-0.7,0.3-1,0.3c-0.9-0.1-1.8-0.8-2.7-0.9
	c-1.6-0.2-3.2,1.1-3.6,2.7c-0.4,1.8,0.1,4.2,1.2,5.6c2,2.5,5.9,2.8,8.5,1.4C1500.1,384.7,1500.8,381,1499.9,378.3L1499.9,378.3z" />
  <path class="st18" d="M1443.6,335.3c-0.8-2.3-3.1-2.1-4.9-1.3c-0.3,0.1-0.7,0.3-1,0.3c-0.9-0.1-1.8-0.8-2.7-0.9
	c-1.6-0.2-3.2,1.1-3.6,2.7c-0.4,1.8,0.1,4.2,1.2,5.6c2,2.5,5.9,2.8,8.5,1.4C1443.9,341.7,1444.5,338,1443.6,335.3L1443.6,335.3z" />
  <path class="st18" d="M1460.3,297.2c-0.8-2.3-3.1-2.1-4.9-1.3c-0.3,0.1-0.7,0.3-1,0.3c-0.9-0.1-1.8-0.8-2.7-0.9
	c-1.6-0.2-3.2,1.1-3.6,2.7c-0.4,1.8,0.1,4.2,1.2,5.6c2,2.5,5.9,2.8,8.5,1.4C1460.6,303.6,1461.2,299.9,1460.3,297.2L1460.3,297.2z" />
  <path class="st19" d="M1522.9,381.5c-1.2-4.6-3.5-6.4-7.9-7.3c-2.1-0.5-4.8-1.1-6.7-0.1c-1.7-0.4-3.4-0.8-5.1-1.1
	c0-0.1,0.1-0.1,0.1-0.2c0.3-0.4,0.7-0.7,1-1.1c1.6-1.6,7.4-5.8,6.5-8.5c-0.4-1.2-1.5-2-2.7-2.2c-3.4-0.4-5.1,2.6-6.9,4.9
	c-1,1.4-2.4,2.9-2.9,4.6c-0.5,0.5-0.9,1.1-1.3,1.6c-3.5-0.2-7-0.1-10.6,0.4c0.9-1.5,1.7-3,2.5-4.5c1.4-2.5,4.1-7.6-0.9-8.6
	c-3.1-0.6-5.7,3.3-7,5.6c-0.9,1.6-1.7,3.5-2.1,5.3c-0.3,1.3,0,2.4,0.4,3.6c-4.3,1.4-9.5,4.4-12.7,8.3c-0.4-5.9-0.8-11.7-0.8-17.6
	c0-9.5,0.5-19,1-28.4c1.9-1.2,4.6-2.1,7.3-2.7c-0.6,1.9-0.4,4.2,0,6c0.6,3.3,3,9.4,7.2,9c1.2-0.1,2-0.7,2.4-1.8c1-2.4-1-5.9-1.7-8.2
	c-0.5-1.7-1.1-4.2-2.3-6c1.5-0.2,2.7-0.3,3.4-0.3c2.2,0,4.2,0.3,6.2,0.7c-0.4,4.5,1.6,14.4,6.9,15.7c3.8,0.9,4.2-3.3,3.1-5.8
	c-0.7-1.7-2.2-3-3.1-4.6c-0.8-1.3-1.2-2.6-1.5-4c1.1,0.3,2.2,0.5,3.3,0.7c0.1,0,0.2,0,0.3,0c1.9,1.9,5.4,3.5,7.8,4.8
	c1.3,0.7,14.4,3.6,11-0.8c-1.7-2.3-2.8-5.2-5.3-6.7c-2.7-1.6-6.4-1.4-9.4-1.5c-2.2-0.1-4.3-0.5-6.4-0.9c0.3-0.2,0.6-0.4,0.9-0.6
	c0.2,0,0.4-0.1,0.5-0.2c3-1.3,6.2-1.6,8.3-4.5c1.6-2.1,1.5-5-1.7-5.2c-3.5-0.2-13.7,4.7-14,8.8c0,0.1,0,0.2,0,0.3
	c-0.4-0.1-0.8-0.1-1.1-0.2c-2.6-0.3-5.4-0.5-8.1-0.4c0.3-0.4,0.6-0.8,0.9-1.2c1-1.4,2-2.7,2.6-4.3c0.8-0.8,1.5-1.7,1.7-2.7
	c0.5-1.9-1.6-3.4-3.2-2.5c-1.7,0.9-3.1,3-4.2,4.6c-0.4,0.4-0.7,0.8-1,1.3c-1.3,1.5-2.9,2.9-2.5,5.1c0,0.2,0.1,0.3,0.2,0.5
	c-2.7,0.7-5.3,1.7-7.6,3.4c-0.1,0.1-0.2,0.2-0.4,0.3c0.5-8.7,1.1-17.5,1.4-26.2c0.2-0.1,0.4-0.2,0.5-0.4c5.4-3.4,10.8-5.2,16.2-6
	c0,0.1,0.1,0.2,0.1,0.3c0,3.6,1.3,7.6,3.2,10.2c2.2,3,5.7,2.6,6.3-1.3c0.6-3.4-1.4-7.1-3.8-9.8c3.8-0.2,7.7,0.1,11.7,0.5
	c0,0.1,0,0.3,0.1,0.4c-0.6,1.9-0.4,4.1,0.4,5.9c1,2.4,3.7,6.3,6.8,5.6c3.7-0.8,2-5.6,1-7.8c-0.4-0.9-0.9-1.7-1.4-2.5
	c0.4,0.4,0.9,0.7,1.5,0.7c2.8-0.2,4.8,2.8,8.3,2.3c1-0.1,2-0.8,2-2c-0.1-2.9-4.1-5.5-6.7-6c-1.1-0.2-2.1,0.3-3.2,0.2
	c-1-0.1-2-0.2-3.1-0.4c2.5-1.1,5-2.9,6.4-5c1.5-2.2,2.7-7.6-1.6-7.5c-3.3,0-7.4,2.9-9.6,5.3c-1.1,1.3-3.3,3.8-2.9,5.8
	c-2.9-0.4-5.9-0.6-9-0.4c1.3-2,2.9-4.3,3.7-6.3c0.7-1.5-0.1-2.9-1.8-3.1c-3.9-0.3-8.8,6-8.8,10.1c-6.2,1.1-12.1,3.5-16.6,7.7
	c0-1.6,0.1-3.1,0.1-4.7c1-4.2,1.1-8.5,2-12.7c0-0.2,0.1-0.3,0.1-0.5c1.4-0.4,2.7-1,4-1.5c1.6-0.7,2.7-1.4,4.1-2.5
	c1.7-1.3,4.6-3.2,3.3-5.8c-1.3-2.5-4.6-1-6.4-0.1c-1.2,0.6-2.2,1.4-3.2,2.2c0.5-1.8,1-3.6,1.6-5.4c0.3-0.1,0.6-0.2,0.9-0.5
	c2.3-1.9,4.6-3.8,6.4-6.3c1.3-1.9,2-6.1-0.4-7.6s-4.5,1.1-5.7,2.8c-0.8,1.1-1.6,2.3-2.3,3.5c-0.6-1.8-1.5-3.6-2-4.6
	c-0.7-1.4-1.3-3.3-2.9-3.8c-1.1-0.3-2.2,0-2.8,1.1c-1.1,2.1,0.3,5.4,0.9,7.5c0.6,1.9,1.1,3.8,2.8,5c0.5,0.4,1,0.6,1.5,0.6
	c-0.5,1.3-0.9,2.6-1.3,4c-0.7-1-1.5-2.1-2.3-3c-1.1-1.4-3.4-3.5-5.2-2c-1.8,1.6,0.4,5,1.5,6.4c0.8,1.1,1.7,2.2,2.8,3.1
	c0.5,0.4,1,0.8,1.6,1.2c-1.4,5.9-2.2,12.1-1.8,17.9c-2-2.1-5.3-3.7-8.4-5c-0.3-0.2-0.6-0.4-1-0.4c-2-0.8-3.8-1.6-5.1-2.3
	c-0.8-0.4-1.6-0.8-2.5-1.2c0.6-1.3,1.5-2.6,2.1-3.9c0.8-2,1.6-4,1.3-6.1c-0.2-1.3-1.3-2.6-2.7-2.1c-2.9,1-4,5.4-5.1,7.9
	c-0.2,0.6-0.5,1.2-0.7,1.9c-1.4-0.6-2.8-1.3-4.1-2c0-0.1,0-0.2,0-0.3c1.6-4.1,3.6-6.4,2.2-11.1c-0.4-1.4-2.4-2.1-3.5-0.9
	c-1.9,2.2-2,4.7-2.8,7.4c-0.1,0.3-0.3,0.8-0.5,1.3c-2.7-2.8-4.6-4.7-8.7-6c-1.5-0.5-2.7,1-2.4,2.4c0.8,4.1,4.4,5.6,7.5,7.5
	c-2.8,1.2-5.8,2.6-7.4,5.5c-0.5,0.9-0.3,2.3,0.7,2.8c3.1,1.5,7.1-1.3,9.4-3.3c0.8-0.7,1.5-1.4,2.1-2.2c1.6,0.8,3.3,1.4,4.9,2.2
	c0.1,0.1,0.3,0.1,0.4,0.2c-2.1,1.1-4.1,3.1-4.7,4.7c-0.5,1.3,0.7,2.3,1.8,2.4c1.5,0.2,2.6-0.9,3.7-1.9c0.9-0.9,2.5-2,3.5-3.1
	c2,1,4,2,6.1,3c-0.8,0.8-1.7,1.6-2.5,2.5c-0.9,1-0.9,2.5,0.2,3.4c1,0.8,2.1,0.5,2.9-0.2l0,0c0.8-0.9,1.7-1.6,2.6-2.4
	c0.4-0.4,0.9-0.8,1.4-1.2c3.9,1.5,6.7,2.1,8.8,6c-1.2,6.6-2.4,13.1-3,19.7c-0.3,3.7-0.7,7.3-1,10.9c-3.9-2.9-11.4-3.7-17.6-3.6
	c0.5-0.3,0.9-0.8,0.9-1.5c0-1.4-0.6-2.4-1.4-3.5c-0.8-1.3-1.3-2.5-1.7-3.9c-0.5-1.9-1.7-4.2-4-3.4c-4.9,1.8-1.4,9.5,1.8,12.6
	c-1.2,0.1-2.2,0.3-3.1,0.4c-2,0.4-3.9,1-5.9,1.7c-0.2-0.3-0.8-0.9-1.3-1.7c-1-1.5-2.1-2.7-3.6-3.6c-2.6-1.5-6-1.8-8.8-0.7
	c-1.9,0.8-2.2,3.6,0,4.2c3.1,1,4.6,2.6,6.8,4.3c-0.2,0.1-0.3,0.1-0.5,0.2c-4,1.5-8.2,2.8-8,7.6c0,1.3,1.4,2.1,2.6,1.5
	c2.5-1.4,5.4-3.5,8.2-4.7c-0.2,0.4-0.3,0.9-0.5,1.3c-0.6,2.1-1.1,6.6,1.2,7.7c2.8,1.4,4.2-1.6,4.8-3.7c0.9-3,1.7-5.6,1.8-8.8
	c0-0.1,0-0.2,0-0.4c1.9-0.6,3.5-1.1,4.3-1.3c0.9-0.2,1.9-0.4,3-0.6c-1.1,1.1-1.9,2.5-2.4,3.9c-0.6,1.8-1,5.2,0.5,6.7
	c2.3,2.3,4.4-0.7,5.3-2.6c0.9-2.1,2.7-5.8,2.2-8.4c5.4-0.1,11.2,0.8,15.2,3.2c-0.8,9.4-1.4,18.9-1.4,28.4c0,6.3,0.6,12.6,1,18.9
	c-2.8-2.9-6.3-5.2-9-6.4c-2.7-1.2-5.3-1.7-7.9-2c-0.2-0.2-0.3-0.3-0.5-0.4c-1.4-3.5-2.8-13.5-7.5-9.3c-2.5,2.2-1.4,6.5,0.9,9.3h-0.1
	c-4.4-0.4-8.4-2.3-12.7-1.7c-0.8-0.8-1.6-1.7-2.2-2.2c-1.7-1.3-3.7-2.5-5.7-3.3c-1.3-0.5-2.5,0.8-2.6,2c-0.1,1.8,0.8,3,2.1,3.9
	c-4.4,1.3-8.5,4-7.1,7.4c0.3,0.8,0.9,1.4,1.8,1.4c3.8,0.1,7.6-1.8,11.1-3.3c-0.6,0.6-1.2,1.4-1.7,1.9c-1.7,1.8-3.8,4.8-2.3,7.4
	c1.8,3.1,5.1,0.4,6.6-1.4c1.1-1.4,2.3-2.9,3.2-4.5c0.4-0.8,0.8-1.6,1.1-2.4c0.1-0.4,0.2-0.7,0.3-1.1c0.1-0.3,0.3-0.9,0.1-0.5
	c0.1-0.1,0.1-0.3,0.2-0.4c1.2,0.4,2.3,0.9,3.4,1.1c1.5,0.3,3,0.4,4.5,0.5c-0.2,0.1-0.3,0.2-0.4,0.3c-1,1-1.9,2.1-2.5,3.4
	c-0.7,1.7-1.3,4.2-0.2,5.8c0.7,0.9,2.1,1.6,3.1,0.8c3.2-2.3,5.4-5.6,7.9-8.5c0.4-0.3,0.6-0.7,0.7-1.1c0.5,0.1,1,0.2,1.6,0.4
	c5.4,1.6,9.4,4.5,12.9,9c0.5,0.6,0.9,1.2,1.4,1.8c0,2-0.1,4-0.2,6c0.1-1.6-8.3-5.9-9.7-5.1c-0.1,0.1-0.3,0.2-0.4,0.3
	c-4.2,2.5,4.1,8.8,5.6,10.3c1.2,1.2,2.6,2.2,4.2,2.7c0,3.8,0.2,7.3-0.6,11.2c-1.8,8.3-4.2,17.3-0.6,25.4c2,4.5,6.1-5,6.3-6.3
	c0.9-4.8-0.8-9.7,0-14.3c0.8-4.9,2-9.6,2-14.7c0-1.2,0-2.4-0.1-3.6c2.8-1.4,5.5-2.9,8.3-4.3c1.7-0.9,0.9-3.6-1-3.6
	c-2.6,0.1-5.2-0.3-7.7,0.1c-0.1-2.2-0.3-4.3-0.4-6.5c0.7-1.2,1.3-2.6,2.1-3.5c1.5-1.7,3.4-3.4,5.3-4.5c1.2-0.7,2.5-1.3,3.8-1.8
	c-1.3,2.5,0.3,5.9,2,7.8c2.4,2.6,6.3,5.9,10.1,5.5c2-0.2,3-2,2.2-3.9c-0.5-1-1.3-2-1.9-2.9c-0.8-1.1-1.4-2.3-2.2-3.5
	c-1.1-1.7-2.5-3.4-4.1-4.7c0.5-0.1,1-0.2,1.5-0.2c3.5-0.5,6.8-0.6,10-0.6c-0.1,0.1-0.1,0.3-0.2,0.4c-0.7,1.8-0.4,3.7,0.4,5.4
	c1.6,3.7,6.5,9.5,11,9c1.5-0.2,2.5-1.3,2.2-2.9c-0.2-1.1-1.2-2-1.8-2.9c-1.2-1.7-2.5-3.3-3.6-5c-0.6-1.1-1.5-2.6-2.6-3.7
	c1.5,0.1,3,0.3,4.5,0.4c0,0.1,0,0.3,0,0.4c0.2,0.3,0.3,0.5,0.5,0.8c0.1,0.7,0.5,1.3,1.2,1.6c1,1.2,2.2,2.3,3.7,3.2
	c2.5,1.4,5.2,2.1,7.9,2.9c0.8,0.2,1.5,0.5,2.3,0.3C1523.8,386.2,1523.3,383,1522.9,381.5L1522.9,381.5z" />
  <path class="st20" d="M1446.6,290.6c-0.9-2.8-3.8-2.7-6-1.6c-0.4,0.2-0.8,0.4-1.3,0.3c-1.1-0.1-2.2-1-3.4-1.2
	c-1.9-0.2-4,1.4-4.5,3.3c-0.5,2.2,0.1,5.2,1.5,7c2.4,3,7.3,3.4,10.6,1.8C1446.9,298.5,1447.7,293.9,1446.6,290.6L1446.6,290.6z" />
  <path class="st20" d="M1489.3,333.3c-0.9-2.8-3.8-2.7-6-1.6c-0.4,0.2-0.8,0.4-1.3,0.3c-1.1-0.1-2.2-1-3.4-1.2
	c-1.9-0.2-4,1.4-4.5,3.3c-0.5,2.2,0.1,5.2,1.5,7c2.4,3,7.3,3.4,10.6,1.8C1489.7,341.2,1490.4,336.7,1489.3,333.3z" />
  <path class="st20" d="M1453,382.8c-0.9-2.8-3.8-2.7-6-1.6c-0.4,0.2-0.8,0.4-1.3,0.3c-1.1-0.1-2.2-1-3.4-1.2c-1.9-0.2-4,1.4-4.5,3.3
	c-0.5,2.2,0.1,5.2,1.5,7c2.4,3,7.3,3.4,10.6,1.8C1453.3,390.7,1454.1,386.1,1453,382.8L1453,382.8z" />
  <path class="st20" d="M1466.7,391.5c-0.8-2.3-3.1-2.1-4.9-1.3c-0.3,0.1-0.7,0.3-1,0.3c-0.9-0.1-1.8-0.8-2.7-0.9
	c-1.6-0.2-3.2,1.1-3.6,2.7c-0.4,1.8,0.1,4.2,1.2,5.6c2,2.5,5.9,2.8,8.5,1.4C1467,397.9,1467.6,394.2,1466.7,391.5L1466.7,391.5z" />
  <path class="st20" d="M1496.8,297.9c-0.8-2.3-3.1-2.1-4.9-1.3c-0.3,0.1-0.7,0.3-1,0.3c-0.9-0.1-1.8-0.8-2.7-0.9
	c-1.6-0.2-3.2,1.1-3.6,2.7c-0.4,1.8,0.1,4.2,1.2,5.6c2,2.5,5.9,2.8,8.5,1.4C1497.1,304.3,1497.7,300.6,1496.8,297.9z" />
  <path class="st7" d="M1348,280.1c0,0,7.9,25.5,9.9,27.9s23.7,9.6,23.7,9.6l-5,22.8c0,0-34.3-7.4-39.9-10.8s-14.4-33.2-14.4-33.2
	L1348,280.1L1348,280.1z" />
  <path class="st16" d="M1351.3,284.6c-0.6,1.7-27.2,16.2-29.1,16.4c-0.7,0.1-2.7-3.6-5.1-8.3c-2.8-5.6-3.2-16.4-5.2-20.8
	c-1.2-2.6-1.9-4.3-1.9-4.3l6.7-15.1l15.2-23.2c0,0,5.6,11.4,6.8,13.7c3.4,6.4,8.9,30.7,10.2,34.5
	C1350.3,281.3,1352,282.9,1351.3,284.6L1351.3,284.6z" />
  <path class="st12" d="M1375.1,342.1c-1.9-2.5,4.1-27.2,5.5-27.5c1.3-0.3,23.4,6.4,26.1,6.1s19.4-3.6,25-1.9s10.9,8.7,7.7,15.3
	c-3.2,6.7-13.3,6.9-20.6,7.3c-3.3,0.2-8.2-0.9-9.4-0.7C1408.1,341.2,1377,344.6,1375.1,342.1L1375.1,342.1z" />
  <path class="st13" d="M1188.2,381.7c-12.5,0-25.9-0.7-35.1-2.4c-15.8-3.1-19.1-8.7-19.2-8.9c-0.2-0.4-0.1-0.9,0.3-1.1
	s0.9-0.1,1.1,0.3c0.1,0.1,3.3,5.2,18.1,8.1c15.2,3,42.6,2.8,57.2,1.7c29.4-2.2,40.3-8.5,40.4-8.6c0.4-0.2,0.9-0.1,1.1,0.3
	s0.1,0.9-0.3,1.1c-0.4,0.3-11.3,6.5-41.1,8.8C1204.8,381.4,1196.7,381.7,1188.2,381.7L1188.2,381.7z" />
  <path class="st13" d="M1138.6,367.1c0.7-1.6,22-8.7,56.2-8.4c34.2,0.3,52.9,6.8,53.9,8.4c1.1,1.6-20.5,7.2-56.3,7.9
	C1156.6,375.6,1138,368.7,1138.6,367.1L1138.6,367.1z" />
  <path class="st20" d="M1169.5,368.4c-0.3-0.8-0.9-1.5-1.7-1.7c-0.8-0.3-1.6,0-2.4,0.3c-0.9,0.2-1.7,0.3-2.5,0
	c-1.2-0.3-2.2-0.8-3.5-0.3c-1,0.4-1.9,1.3-2.2,2.4c-0.4,1.8,0.1,4.2,1.2,5.6c2,2.5,5.9,2.8,8.5,1.4
	C1169.8,374.8,1170.4,371.1,1169.5,368.4L1169.5,368.4z" />
  <path class="st18" d="M1202.6,371.7c-0.4-0.7-1-1.3-2-1.5c-0.9-0.2-1.9-0.1-2.8,0c-1.4,0.1-2.5-0.3-3.9-0.5
	c-1.6-0.2-3.2,1.1-3.6,2.7c-0.4,1.8,0.1,4.2,1.2,5.6c2,2.5,5.9,2.8,8.5,1.4C1202.2,378.4,1203.8,374.1,1202.6,371.7L1202.6,371.7z" />
  <path class="st18" d="M1183.7,369.6c0.2-2.7-2.4-3.3-4.5-3.9c-0.8-0.2-1.7-0.5-2.3-1c-0.7-0.5-1.2-1.2-2-1.6
	c-1.7-0.9-4.2-0.3-5.4,1.3c-1.4,1.8-2,4.8-1.4,7c1,3.8,5.3,6,9,5.8C1180.9,377,1183.5,373.1,1183.7,369.6L1183.7,369.6z" />
  <path class="st20" d="M1214.8,366.2c-0.5-1.3-1.5-2.2-2.9-2.2c-1.8-0.1-3.3,1.4-5.2,0.9c-1.4-0.4-2.8-1.2-4.3-0.6
	c-1.3,0.5-2.4,1.7-2.7,3.1c-0.5,2.2,0.2,5.2,1.7,6.9c2.5,3,7.3,3.3,10.6,1.6C1215.4,374.1,1216,369.5,1214.8,366.2z" />
  <path class="st18" d="M1222,362.7c-1.2-0.4-2.4-0.1-3.3,0.8c-1.1,1.1-1.2,2.7-2.1,3.9c-0.8,1.1-2.1,1.5-3,2.4c-1.3,1.4-1.3,4,0,5.6
	c1.4,1.8,4.2,3,6.5,2.9c3.9-0.1,7.1-3.8,7.8-7.5C1228.5,367.1,1225.3,363.8,1222,362.7z" />
</svg>